<svg xmlns="http://www.w3.org/2000/svg" viewBox="0 0 512 512" id="download-folder">
  <g>
    <path fill="#ffca29" d="M510.5,130.38V422.94a43.32,43.32,0,0,1-43.28,43.28H58A56.53,56.53,0,0,1,1.5,409.75V102.1a57.21,57.21,0,0,1,.89-10A56.52,56.52,0,0,1,58,45.78H190.58a37.67,37.67,0,0,1,26.44,11l28.73,28.73a22.86,22.86,0,0,0,15.82,6.58H472.19A38.35,38.35,0,0,1,510.5,130.38Z"></path>
    <path fill="#ffa000" d="M261.57,92.07H2.39A56.34,56.34,0,0,1,58,45.78H190.58a37.67,37.67,0,0,1,26.44,11l28.73,28.73A22.86,22.86,0,0,0,261.57,92.07Z"></path>
    <path fill="#ef8e00" d="M261.57,92.07H2.39a57,57,0,0,1,1.87-7.41H244.92l.83.83A22.86,22.86,0,0,0,261.57,92.07Z"></path>
    <path fill="#231f20" d="M260,362.3a3.64,3.64,0,0,0,.4-.48l-.2.27Z"></path>
    <path fill="#fcbf27" d="M393.72,279.15c0,76.92-62.58,139.5-139.5,139.5A139.52,139.52,0,0,1,119.08,314a144.6,144.6,0,0,1-4.35-34.87c0-76.92,62.58-139.51,139.5-139.51a139.51,139.51,0,0,1,139.5,139.51Z"></path>
    <path fill="#231f20" d="M249.26 362.74a1.86 1.86 0 0 0 .26.23 1.56 1.56 0 0 1-.15-.12zM260 362.3a3.64 3.64 0 0 0 .4-.48l-.2.27-.26.29S260 362.33 260 362.3z"></path>
    <path fill="#4caf50" d="M380.79,279.15A126.61,126.61,0,0,1,131.6,310.79a131.2,131.2,0,0,1-4-31.64A126.72,126.72,0,0,1,254.22,152.57,126.58,126.58,0,0,1,380.79,279.15Z"></path>
    <path fill="#fff" d="M303.93,313.08,262,358.93l.2-.27a3.64,3.64,0,0,1-.4.48s0,0-.06.08l-.09.09a3.1,3.1,0,0,1-.32.31,2.27,2.27,0,0,1-.28.26,5.56,5.56,0,0,1-.56.43,3.89,3.89,0,0,1-.46.29,6.75,6.75,0,0,1-1.59.72,7.36,7.36,0,0,1-2.23.34,6.11,6.11,0,0,1-.74,0l-.18,0a4,4,0,0,1-.5-.08,2.13,2.13,0,0,1-.42-.1.84.84,0,0,1-.26-.07,2.07,2.07,0,0,1-.33-.1,2.09,2.09,0,0,1-.35-.13,3,3,0,0,1-.41-.18l-.18-.09a3.75,3.75,0,0,1-.44-.24.87.87,0,0,1-.18-.11,2.39,2.39,0,0,1-.43-.3.61.61,0,0,1-.16-.12,2.16,2.16,0,0,1-.33-.27,1.86,1.86,0,0,1-.26-.23L205,317.5a7.5,7.5,0,0,1,10.13-11.07l33.58,30.71v-133a7.5,7.5,0,0,1,15,0V334.84L292.86,303a7.5,7.5,0,0,1,11.07,10.13Z"></path>
    <path fill="#231f20" d="M251,359.58a1.86,1.86,0,0,0,.26.23,1.56,1.56,0,0,1-.15-.12Z"></path>
  </g>
</svg>
