<svg xmlns="http://www.w3.org/2000/svg" xml:space="preserve" viewBox="0 0 512 512" id="folder-management">
  <linearGradient id="a" x1="15.646" x2="477.649" y1="508.463" y2="46.461" gradientUnits="userSpaceOnUse">
    <stop offset="0" stop-color="#fcc60e"></stop>
    <stop offset="1" stop-color="#e92e29"></stop>
  </linearGradient>
  <path fill="url(#a)" d="M362.072 416.164a8 8 0 0 1-8 8h-20a8 8 0 0 1 0-16h20a8 8 0 0 1 8 8zm35.749-8h-20a8 8 0 0 0 0 16h20a8 8 0 0 0 0-16zm43.749-107.499a8 8 0 0 0-8 8v20a8 8 0 0 0 16 0v-20a8 8 0 0 0-8-8zm0 43.749a8 8 0 0 0-8 8v20a8 8 0 0 0 16 0v-20a8 8 0 0 0-8-8zm0 43.75a8 8 0 0 0-8 8v12h-12a8 8 0 0 0 0 16h20a8 8 0 0 0 8-8v-20a8 8 0 0 0-8-8zM512 120.391v35.133a8 8 0 0 1-6.735 7.899l-32.799 5.25a102.465 102.465 0 0 1-7.113 17.152l19.485 26.913a8 8 0 0 1-.823 10.349l-24.843 24.843a8.003 8.003 0 0 1-10.349.822l-26.913-19.486a102.465 102.465 0 0 1-17.151 7.112l-5.251 32.801a7.999 7.999 0 0 1-7.899 6.735h-35.132a7.999 7.999 0 0 1-7.899-6.735l-5.25-32.799a102.535 102.535 0 0 1-17.152-7.113l-26.913 19.485a8 8 0 0 1-10.348-.822l-24.842-24.843a8 8 0 0 1-.823-10.349l19.486-26.913a102.44 102.44 0 0 1-7.112-17.152l-32.801-5.25a8 8 0 0 1-6.735-7.899v-35.133a8 8 0 0 1 6.735-7.899l32.801-5.25a102.465 102.465 0 0 1 7.112-17.151L263.25 63.177a8 8 0 0 1 .823-10.349l24.842-24.842a7.998 7.998 0 0 1 10.348-.822l26.912 19.484a102.357 102.357 0 0 1 17.153-7.113l5.25-32.799A7.997 7.997 0 0 1 356.477 0h35.132a7.999 7.999 0 0 1 7.899 6.735l5.25 32.8a102.535 102.535 0 0 1 17.152 7.113l26.913-19.485a8 8 0 0 1 10.348.822l24.843 24.842a8 8 0 0 1 .823 10.349L465.352 90.09a102.564 102.564 0 0 1 7.112 17.151l32.801 5.25a8 8 0 0 1 6.735 7.9zm-16 6.821-31.102-4.979a8.002 8.002 0 0 1-6.486-5.916 86.564 86.564 0 0 0-9.414-22.704 8 8 0 0 1 .401-8.772l18.479-25.522-15.196-15.195-25.522 18.477a7.999 7.999 0 0 1-8.772.401 86.466 86.466 0 0 0-22.703-9.415 8 8 0 0 1-5.918-6.486L384.788 16h-21.49l-4.979 31.101a8 8 0 0 1-5.918 6.486 86.474 86.474 0 0 0-22.705 9.414 8.002 8.002 0 0 1-8.772-.401l-25.521-18.477-15.196 15.195 18.479 25.521a7.999 7.999 0 0 1 .401 8.771 86.567 86.567 0 0 0-9.414 22.705 8 8 0 0 1-6.486 5.917l-31.103 4.979v21.49l31.102 4.979a8 8 0 0 1 6.486 5.917 86.541 86.541 0 0 0 9.415 22.704 8 8 0 0 1-.401 8.772l-18.479 25.522 15.196 15.195 25.522-18.478a8 8 0 0 1 8.772-.401 86.466 86.466 0 0 0 22.703 9.415 8 8 0 0 1 5.918 6.486l4.979 31.1h21.49l4.979-31.102a8 8 0 0 1 5.917-6.485 86.535 86.535 0 0 0 22.704-9.415 8.002 8.002 0 0 1 8.773.401l25.521 18.479 15.196-15.196-18.479-25.521a8 8 0 0 1-.401-8.772 86.495 86.495 0 0 0 9.416-22.703 8 8 0 0 1 6.486-5.918l31.1-4.979v-21.489zm-62.047 10.745c0 33.035-26.876 59.911-59.911 59.911s-59.91-26.876-59.91-59.911c0-33.034 26.875-59.91 59.91-59.91s59.911 26.876 59.911 59.91zm-16 0c0-24.212-19.698-43.91-43.911-43.91s-43.91 19.698-43.91 43.91c0 24.213 19.698 43.911 43.91 43.911s43.911-19.698 43.911-43.911zM301.168 357.77v121.52c0 18.036-14.674 32.71-32.71 32.71H32.71C14.674 512 0 497.326 0 479.29V288.875c0-18.037 14.674-32.711 32.71-32.711h72.324c13.225 0 24.607 6.566 31.227 18.015l29.419 50.881h102.777c18.037 0 32.711 14.673 32.711 32.71zM16 288.875v36.185h131.198l-24.788-42.872c-3.738-6.464-9.909-10.023-17.376-10.023H32.71c-9.213-.001-16.71 7.495-16.71 16.71zm269.168 68.895c0-9.214-7.496-16.71-16.71-16.71H16v138.23c0 9.214 7.496 16.71 16.71 16.71h235.747c9.214 0 16.71-7.496 16.71-16.71V357.77zM171.319 114.664h20a8 8 0 0 0 0-16h-20a8 8 0 0 0 0 16zm-43.749 0h20a8 8 0 0 0 0-16h-20a8 8 0 0 0 0 16zM83.821 222.163a8 8 0 0 0 8-8v-20a8 8 0 0 0-16 0v20a8 8 0 0 0 8 8zm0-43.749a8 8 0 0 0 8-8v-20a8 8 0 0 0-16 0v20a8 8 0 0 0 8 8zm0-43.749a8 8 0 0 0 8-8v-12.001h12a8 8 0 0 0 0-16h-20a8 8 0 0 0-8 8v20.001a8 8 0 0 0 8 8z"></path>
</svg>
