<svg xmlns="http://www.w3.org/2000/svg" viewBox="0 0 48 48" id="hard-disk">
  <g>
    <path fill="#48bdff" d="M39,4H9A1,1,0,0,0,8,5V43a1,1,0,0,0,1,1H39a1,1,0,0,0,1-1V5A1,1,0,0,0,39,4ZM14,23.54l2.55-1.71A1,1,0,0,0,17,21V18a1,1,0,0,0-1-1H14V13.9A5,5,0,0,0,17.9,10H30.1A5,5,0,0,0,34,13.9V28a10,10,0,0,1-20,0Z"></path>
    <path fill="#33375c" d="M24,40A12,12,0,0,1,12,28V23a1,1,0,0,1,.45-.83L15,20.46V19H13a1,1,0,0,1-1-1V13a1,1,0,0,1,1-1,3,3,0,0,0,3-3,1,1,0,0,1,1-1H31a1,1,0,0,1,1,1,3,3,0,0,0,3,3,1,1,0,0,1,1,1V28A12,12,0,0,1,24,40ZM14,23.54V28a10,10,0,0,0,20,0V13.9A5,5,0,0,1,30.1,10H17.9A5,5,0,0,1,14,13.9V17h2a1,1,0,0,1,1,1v3a1,1,0,0,1-.45.83Z"></path>
    <circle cx="13" cy="9" r="1" fill="#b9d5ea"></circle>
    <circle cx="35" cy="9" r="1" fill="#b9d5ea"></circle>
    <circle cx="13" cy="39" r="1" fill="#b9d5ea"></circle>
    <circle cx="35" cy="39" r="1" fill="#b9d5ea"></circle>
    <path fill="#ebf3fe" d="M35,12a3,3,0,0,1-3-3,1,1,0,0,0-1-1H17a1,1,0,0,0-1,1,3,3,0,0,1-3,3,1,1,0,0,0-1,1v5a1,1,0,0,0,1,1h2v1.46l-2.55,1.71A1,1,0,0,0,12,23v5a12,12,0,0,0,24,0V13A1,1,0,0,0,35,12Z"></path>
    <circle cx="24" cy="28" r="7" fill="#2d98f6"></circle>
    <path fill="#48bdff" d="M20 15.5a1 1 0 0 1-1-1v-2a1 1 0 0 1 2 0v2A1 1 0 0 1 20 15.5zM24 15.5a1 1 0 0 1-1-1v-2a1 1 0 0 1 2 0v2A1 1 0 0 1 24 15.5zM28 15.5a1 1 0 0 1-1-1v-2a1 1 0 0 1 2 0v2A1 1 0 0 1 28 15.5z"></path>
  </g>
</svg>
