<svg xmlns="http://www.w3.org/2000/svg" enable-background="new 0 0 24 24" viewBox="0 0 24 24" id="microsoft-onedrive">
  <path fill="#0948AC" d="M16.54,10.65c-1.271-1.604-2.806-2.154-4.612-1.665c-1.803,0.476-2.845,1.724-3.12,3.744c-2.105,0.179-3.176,1.219-3.209,3.105c-0.036,1.88,0.997,2.958,3.101,3.232h12.738c1.612-0.182,2.463-0.998,2.555-2.448c0.094-1.447-0.648-2.368-2.224-2.755l-0.006-0.019c0-0.698-0.166-1.338-0.48-1.901c-0.315-0.565-0.796-1.012-1.396-1.323c-0.463-0.253-1.029-0.387-1.697-0.432C17.526,10.143,16.976,10.293,16.54,10.65L16.54,10.65z"></path>
  <path fill="#0948AC" d="M3.24,18.028c0.621,0,1.18-0.15,1.68-0.453l0.062,0.091c-0.21-0.505-0.301-1.056-0.301-1.651c0-0.534,0.091-1.04,0.256-1.531c0.164-0.489,0.42-0.921,0.75-1.293c0.345-0.432,0.778-0.758,1.289-0.996c0.316-0.134,0.66-0.237,1.021-0.311c0.105-0.52,0.299-1.011,0.585-1.471c0.285-0.459,0.63-0.862,1.05-1.218c0.48-0.416,1.021-0.727,1.62-0.95c0.601-0.223,1.23-0.326,1.89-0.326c0.722,0,1.396,0.118,2.012,0.386c0.629,0.268,1.185,0.653,1.663,1.158c0.361-0.133,0.765-0.192,1.23-0.192h0.285c-0.24-1.234-0.826-2.228-1.756-3.001c-0.93-0.772-2.023-1.174-3.314-1.204c-0.959,0.016-1.83,0.254-2.608,0.714C9.888,6.24,9.272,6.863,8.792,7.622C8.222,7.28,7.577,7.117,6.858,7.117c-1.143,0.03-2.088,0.416-2.842,1.144c-0.75,0.728-1.141,1.663-1.17,2.792c0,0.197,0.012,0.384,0.042,0.561c-0.833,0.101-1.519,0.445-2.058,1.04C0.291,13.247,0.017,13.972,0,14.826c0.031,0.906,0.347,1.665,0.953,2.261C1.56,17.686,2.32,18,3.24,18.028L3.24,18.028z"></path>
  <path fill="#083F96" d="M12,8.965c-0.024,0.006-0.048,0.013-0.072,0.019c-1.803,0.476-2.845,1.724-3.12,3.744c-2.105,0.179-3.176,1.219-3.209,3.105c-0.036,1.88,0.997,2.958,3.101,3.232H12V8.965L12,8.965z"></path>
  <path fill="#083F96" d="M12,5.228c-0.476,0.119-0.925,0.303-1.347,0.553C9.888,6.24,9.272,6.863,8.792,7.622C8.222,7.28,7.577,7.117,6.858,7.117c-1.143,0.03-2.088,0.416-2.842,1.144c-0.75,0.728-1.141,1.663-1.17,2.792c0,0.197,0.012,0.384,0.042,0.561c-0.833,0.101-1.519,0.445-2.058,1.04C0.291,13.247,0.017,13.972,0,14.826l0,0c0.031,0.906,0.347,1.665,0.953,2.261C1.56,17.686,2.32,18,3.24,18.028c0.621,0,1.18-0.15,1.68-0.453l0.062,0.091c-0.21-0.505-0.301-1.056-0.301-1.651c0-0.534,0.091-1.04,0.256-1.531c0.164-0.489,0.42-0.921,0.75-1.293c0.345-0.432,0.778-0.758,1.289-0.996c0.316-0.134,0.66-0.237,1.021-0.311c0.105-0.52,0.299-1.011,0.585-1.471c0.285-0.459,0.63-0.862,1.05-1.218c0.48-0.416,1.021-0.727,1.62-0.95C11.496,8.155,11.746,8.084,12,8.032V5.228L12,5.228z"></path>
</svg>
