<svg xmlns="http://www.w3.org/2000/svg" xml:space="preserve" id="recycle-bin" x="0" y="0" version="1.1" viewBox="0 0 24 24">
  <path fill="#4A6A65" d="M19.97 7.5c0-.011.004-.022.004-.033C19.697 3.28 16.194.014 12 .014S4.303 3.28 4.026 7.467c0 .011.005.022.005.033h15.938zM3.923 9l1.898 13.283A2.01 2.01 0 0 0 7.8 24h8.398a2.01 2.01 0 0 0 1.98-1.717L20.077 9H3.923z"></path>
  <path fill="#010101" d="M16.311 23.75H7.689c-.68 0-1.29-.335-1.666-.847A2.008 2.008 0 0 0 7.801 24h8.398c.765 0 1.443-.444 1.778-1.097a2.072 2.072 0 0 1-1.666.847z" opacity=".1"></path>
  <path fill="#F3F3F3" d="M10 6h4c1.103 0 2-.897 2-2V1.09C14.818.4 13.453 0 12 0S9.182.4 8 1.09V4c0 1.103.897 2 2 2z"></path>
  <path fill="#FFF" d="m10.5 16-.643-.76c.047-.08.093-.159.147-.231A2.488 2.488 0 0 1 12 14c.745 0 1.398.341 1.855.86l.806-.605A3.457 3.457 0 0 0 12 13a3.5 3.5 0 0 0-3.5 3.5c0 .314.055.612.132.901L10.5 16zM13.5 17l.643.76c-.047.08-.093.159-.147.231A2.488 2.488 0 0 1 12 19c-.745 0-1.398-.341-1.855-.86l-.806.605A3.457 3.457 0 0 0 12 20a3.5 3.5 0 0 0 3.5-3.5c0-.314-.055-.612-.132-.901L13.5 17z"></path>
  <path fill="#FFF" d="M4.051 7.5C4.434 3.418 7.88.25 12 .25s7.566 3.168 7.949 7.25h.02c0-.011.005-.022.005-.033C19.697 3.28 16.194 0 12 0S4.303 3.28 4.026 7.467c0 .011.005.022.005.033h.02z" opacity=".2"></path>
  <path fill="#234946" d="M3 7.5V10h18V7.5a.5.5 0 0 0-.5-.5h-17a.5.5 0 0 0-.5.5z"></path>
  <path fill="#FFF" d="M20.5 7h-17a.5.5 0 0 0-.5.5v.25a.5.5 0 0 1 .5-.5h17a.5.5 0 0 1 .5.5V7.5a.5.5 0 0 0-.5-.5z" opacity=".1"></path>
  <path fill="#010101" d="M3 9.75h18V10H3z" opacity=".1"></path>
  <linearGradient id="SVGID_1_" x1="8.745" x2="19.413" y1="6.745" y2="17.413" gradientUnits="userSpaceOnUse">
    <stop offset="0" stop-color="#010101" stop-opacity=".1"></stop>
    <stop offset="1" stop-color="#010101" stop-opacity="0"></stop>
  </linearGradient>
  <path fill="url(#SVGID_1_)" d="M4.066 10l13.475 13.474a1.99 1.99 0 0 0 .638-1.191L19.934 10H4.066z"></path>
  <linearGradient id="SVGID_2_" x1="2.582" x2="20.832" y1="8.285" y2="16.795" gradientUnits="userSpaceOnUse">
    <stop offset="0" stop-color="#FFF" stop-opacity=".2"></stop>
    <stop offset="1" stop-color="#FFF" stop-opacity="0"></stop>
  </linearGradient>
  <path fill="url(#SVGID_2_)" d="M21 7.5a.5.5 0 0 0-.5-.5h-.58C19.423 3.04 16.036.014 12 .014S4.577 3.041 4.08 7H3.5a.5.5 0 0 0-.5.5V10h1.066l1.755 12.283A2.01 2.01 0 0 0 7.8 24h8.398a2.01 2.01 0 0 0 1.98-1.717L19.934 10H21V7.5z"></path>
</svg>
