<svg xmlns="http://www.w3.org/2000/svg" width="47.127" height="47.127" id="microsoft-sharepoint">
  <circle cx="13.991" cy="13.991" r="13.991" fill="#036c70" transform="translate(8.1)"></circle>
  <circle cx="11.966" cy="11.966" r="11.966" fill="#1a9ba1" transform="translate(23.195 14.359)"></circle>
  <circle cx="9.573" cy="9.573" r="9.573" fill="#37c6d0" transform="translate(13.991 27.982)"></circle>
  <path d="M24.546 10.309H8.59a14 14 0 0 0 13.5 17.673c.408 0 .811-.019 1.212-.053l.007.056a9.573 9.573 0 0 0-9.319 9.57q0 .371.028.736h10.528a1.969 1.969 0 0 0 1.963-1.963V12.272a1.969 1.969 0 0 0-1.963-1.963Z" opacity=".1"></path>
  <path d="M23.073 11.782H8.272a14 14 0 0 0 13.818 16.2c.408 0 .811-.019 1.212-.053l.007.056a9.58 9.58 0 0 0-9.063 11.779h8.826a1.969 1.969 0 0 0 1.963-1.963V13.745a1.969 1.969 0 0 0-1.962-1.963Z" opacity=".2"></path>
  <path d="M23.073 11.782H8.272a14 14 0 0 0 13.818 16.2c.408 0 .811-.019 1.212-.053l.007.056a9.573 9.573 0 0 0-9.293 8.833h9.056a1.969 1.969 0 0 0 1.963-1.963v-21.11a1.969 1.969 0 0 0-1.962-1.963Z" opacity=".2"></path>
  <path d="M21.599 11.782H8.272a14 14 0 0 0 13.818 16.2c.408 0 .811-.019 1.212-.053l.007.056a9.573 9.573 0 0 0-9.293 8.833h7.583a1.969 1.969 0 0 0 1.963-1.963v-21.11a1.969 1.969 0 0 0-1.963-1.963Z" opacity=".2"></path>
  <path fill="#03787c" d="M1.963 11.782H21.6a1.963 1.963 0 0 1 1.963 1.963v19.637a1.963 1.963 0 0 1-1.963 1.963H1.963A1.963 1.963 0 0 1 0 33.382V13.745a1.963 1.963 0 0 1 1.963-1.963Z"></path>
  <path fill="#fff" d="M8.351 23.306a3.9 3.9 0 0 1-1.211-1.281 3.477 3.477 0 0 1-.423-1.753 3.373 3.373 0 0 1 .785-2.274 4.627 4.627 0 0 1 2.085-1.361 8.81 8.81 0 0 1 2.851-.439 10.83 10.83 0 0 1 3.754.526v2.651a5.87 5.87 0 0 0-1.7-.694 8.241 8.241 0 0 0-1.987-.239 4.309 4.309 0 0 0-2.041.432 1.34 1.34 0 0 0-.808 1.229 1.243 1.243 0 0 0 .343.869 3.125 3.125 0 0 0 .923.66q.58.289 1.732.766a1.815 1.815 0 0 1 .249.1 14.281 14.281 0 0 1 2.184 1.078 3.909 3.909 0 0 1 1.292 1.3 3.767 3.767 0 0 1 .467 1.962 3.652 3.652 0 0 1-.734 2.36 4.107 4.107 0 0 1-1.966 1.32 8.908 8.908 0 0 1-2.8.408 14.769 14.769 0 0 1-2.536-.209 8.707 8.707 0 0 1-2.062-.595v-2.8a6.627 6.627 0 0 0 2.085.994 8.119 8.119 0 0 0 2.294.368 3.947 3.947 0 0 0 2.081-.442 1.4 1.4 0 0 0 .7-1.247 1.331 1.331 0 0 0-.392-.954 3.982 3.982 0 0 0-1.082-.754q-.691-.348-2.041-.913a11.575 11.575 0 0 1-2.041-1.068Z"></path>
  <path fill="none" d="M0 0h47.127v47.127H0Z"></path>
</svg>
